<svg xmlns="http://www.w3.org/2000/svg" width="920" height="460">
<rect width="100%" height="100%" fill="white"/>
<line x1="70" y1="405" x2="900" y2="405" stroke="black"/>
<line x1="70" y1="30" x2="70" y2="405" stroke="black"/>
<line x1="70.0" y1="405" x2="70.0" y2="411" stroke="black"/>
<text x="70.0" y="427" font-size="12" text-anchor="middle">0.2</text>
<line x1="346.7" y1="405" x2="346.7" y2="411" stroke="black"/>
<text x="346.7" y="427" font-size="12" text-anchor="middle">0.4</text>
<line x1="623.3" y1="405" x2="623.3" y2="411" stroke="black"/>
<text x="623.3" y="427" font-size="12" text-anchor="middle">0.6</text>
<line x1="900.0" y1="405" x2="900.0" y2="411" stroke="black"/>
<text x="900.0" y="427" font-size="12" text-anchor="middle">0.8</text>
<line x1="65" y1="405.0" x2="70" y2="405.0" stroke="black"/>
<text x="61" y="409.0" font-size="11" text-anchor="end">0</text>
<line x1="65" y1="330.0" x2="70" y2="330.0" stroke="black"/>
<text x="61" y="334.0" font-size="11" text-anchor="end">151</text>
<line x1="70" y1="330.0" x2="900" y2="330.0" stroke="#eee"/>
<line x1="65" y1="255.0" x2="70" y2="255.0" stroke="black"/>
<text x="61" y="259.0" font-size="11" text-anchor="end">303</text>
<line x1="70" y1="255.0" x2="900" y2="255.0" stroke="#eee"/>
<line x1="65" y1="180.0" x2="70" y2="180.0" stroke="black"/>
<text x="61" y="184.0" font-size="11" text-anchor="end">455</text>
<line x1="70" y1="180.0" x2="900" y2="180.0" stroke="#eee"/>
<line x1="65" y1="105.0" x2="70" y2="105.0" stroke="black"/>
<text x="61" y="109.0" font-size="11" text-anchor="end">607</text>
<line x1="70" y1="105.0" x2="900" y2="105.0" stroke="#eee"/>
<line x1="65" y1="30.0" x2="70" y2="30.0" stroke="black"/>
<text x="61" y="34.0" font-size="11" text-anchor="end">759</text>
<line x1="70" y1="30.0" x2="900" y2="30.0" stroke="#eee"/>
<text x="460.0" y="450" font-size="14" text-anchor="middle">Contained fraction</text>
<text x="20" y="230.0" transform="rotate(-90 20,230.0)" font-size="14" text-anchor="middle">Robust sigma [MeV]</text>
<text x="460.0" y="20" font-size="16" text-anchor="middle">Exiting muon resolution (upper_bound=1200 MeV)</text>
<polyline points="70.0,211.5 346.7,336.9 623.3,376.4 900.0,389.8" fill="none" stroke="#1f77b4" stroke-width="2" stroke-dasharray=""/>
<polyline points="70.0,401.2 346.7,401.6 623.3,400.7 900.0,398.5" fill="none" stroke="#1f77b4" stroke-width="2" stroke-dasharray="5,4"/>
<polyline points="70.0,57.8 346.7,234.7 623.3,339.0 900.0,377.6" fill="none" stroke="#ff7f0e" stroke-width="2" stroke-dasharray=""/>
<polyline points="70.0,401.6 346.7,400.3 623.3,397.3 900.0,393.2" fill="none" stroke="#ff7f0e" stroke-width="2" stroke-dasharray="5,4"/>
<polyline points="70.0,92.1 346.7,131.9 623.3,269.2 900.0,354.3" fill="none" stroke="#2ca02c" stroke-width="2" stroke-dasharray=""/>
<polyline points="70.0,401.2 346.7,398.2 623.3,393.2 900.0,386.6" fill="none" stroke="#2ca02c" stroke-width="2" stroke-dasharray="5,4"/>
<polyline points="70.0,142.2 346.7,189.9 623.3,207.0 900.0,340.6" fill="none" stroke="#d62728" stroke-width="2" stroke-dasharray=""/>
<polyline points="70.0,400.6 346.7,396.9 623.3,390.3 900.0,384.0" fill="none" stroke="#d62728" stroke-width="2" stroke-dasharray="5,4"/>
<polyline points="70.0,156.6 346.7,224.0 623.3,272.7 900.0,306.4" fill="none" stroke="#9467bd" stroke-width="2" stroke-dasharray=""/>
<polyline points="70.0,399.9 346.7,395.9 623.3,388.2 900.0,378.3" fill="none" stroke="#9467bd" stroke-width="2" stroke-dasharray="5,4"/>
<line x1="670" y1="40" x2="700" y2="40" stroke="#1f77b4" stroke-width="2"/>
<text x="705" y="44" font-size="11">200 MeV</text>
<line x1="670" y1="58" x2="700" y2="58" stroke="#ff7f0e" stroke-width="2"/>
<text x="705" y="62" font-size="11">400 MeV</text>
<line x1="670" y1="76" x2="700" y2="76" stroke="#2ca02c" stroke-width="2"/>
<text x="705" y="80" font-size="11">600 MeV</text>
<line x1="670" y1="94" x2="700" y2="94" stroke="#d62728" stroke-width="2"/>
<text x="705" y="98" font-size="11">800 MeV</text>
<line x1="670" y1="112" x2="700" y2="112" stroke="#9467bd" stroke-width="2"/>
<text x="705" y="116" font-size="11">1000 MeV</text>
<line x1="780" y1="40" x2="810" y2="40" stroke="black" stroke-width="2"/>
<text x="815" y="44" font-size="11">MCS</text>
<line x1="780" y1="58" x2="810" y2="58" stroke="black" stroke-width="2" stroke-dasharray="5,4"/>
<text x="815" y="62" font-size="11">MCS+CSDA</text>
</svg>